<?xml version="1.0" encoding="UTF-8" standalone="no"?><svg xmlns="http://www.w3.org/2000/svg" xmlns:xlink="http://www.w3.org/1999/xlink" contentStyleType="text/css" height="568px" preserveAspectRatio="none" style="width:272px;height:568px;background:#FFFFFF;" version="1.1" viewBox="0 0 272 568" width="272px" zoomAndPan="magnify"><defs/><g><ellipse cx="136" cy="20" fill="#222222" rx="10" ry="10" style="stroke:#222222;stroke-width:1.0;"/><rect fill="#F1F1F1" height="33.9688" rx="12.5" ry="12.5" style="stroke:#181818;stroke-width:0.5;" width="239" x="16.5" y="50"/><text fill="#000000" font-family="sans-serif" font-size="12" lengthAdjust="spacing" textLength="219" x="26.5" y="71.1387">Move Gripper above Object Position</text><rect fill="#F1F1F1" height="33.9688" rx="12.5" ry="12.5" style="stroke:#181818;stroke-width:0.5;" width="103" x="84.5" y="103.9688"/><text fill="#000000" font-family="sans-serif" font-size="12" lengthAdjust="spacing" textLength="83" x="94.5" y="125.1074">Open Gripper</text><rect fill="#F1F1F1" height="33.9688" rx="12.5" ry="12.5" style="stroke:#181818;stroke-width:0.5;" width="250" x="11" y="157.9375"/><text fill="#000000" font-family="sans-serif" font-size="12" lengthAdjust="spacing" textLength="230" x="21" y="179.0762">Move Gripper down to Object Position</text><rect fill="#F1F1F1" height="33.9688" rx="12.5" ry="12.5" style="stroke:#181818;stroke-width:0.5;" width="104" x="84" y="211.9063"/><text fill="#000000" font-family="sans-serif" font-size="12" lengthAdjust="spacing" textLength="84" x="94" y="233.0449">Close Gripper</text><rect fill="#F1F1F1" height="33.9688" rx="12.5" ry="12.5" style="stroke:#181818;stroke-width:0.5;" width="122" x="75" y="265.875"/><text fill="#000000" font-family="sans-serif" font-size="12" lengthAdjust="spacing" textLength="102" x="85" y="287.0137">Move Gripper up</text><rect fill="#F1F1F1" height="33.9688" rx="12.5" ry="12.5" style="stroke:#181818;stroke-width:0.5;" width="238" x="17" y="319.8438"/><text fill="#000000" font-family="sans-serif" font-size="12" lengthAdjust="spacing" textLength="218" x="27" y="340.9824">Move Gripper above Target Position</text><rect fill="#F1F1F1" height="33.9688" rx="12.5" ry="12.5" style="stroke:#181818;stroke-width:0.5;" width="249" x="11.5" y="373.8125"/><text fill="#000000" font-family="sans-serif" font-size="12" lengthAdjust="spacing" textLength="229" x="21.5" y="394.9512">Move Gripper down to Target Position</text><rect fill="#F1F1F1" height="33.9688" rx="12.5" ry="12.5" style="stroke:#181818;stroke-width:0.5;" width="103" x="84.5" y="427.7813"/><text fill="#000000" font-family="sans-serif" font-size="12" lengthAdjust="spacing" textLength="83" x="94.5" y="448.9199">Open Gripper</text><rect fill="#F1F1F1" height="33.9688" rx="12.5" ry="12.5" style="stroke:#181818;stroke-width:0.5;" width="122" x="75" y="481.75"/><text fill="#000000" font-family="sans-serif" font-size="12" lengthAdjust="spacing" textLength="102" x="85" y="502.8887">Move Gripper up</text><ellipse cx="136" cy="546.7188" fill="none" rx="11" ry="11" style="stroke:#222222;stroke-width:1.0;"/><ellipse cx="136" cy="546.7188" fill="#222222" rx="6" ry="6" style="stroke:#111111;stroke-width:1.0;"/><line style="stroke:#181818;stroke-width:1.0;" x1="136" x2="136" y1="30" y2="50"/><polygon fill="#181818" points="132,40,136,50,140,40,136,44" style="stroke:#181818;stroke-width:1.0;"/><line style="stroke:#181818;stroke-width:1.0;" x1="136" x2="136" y1="83.9688" y2="103.9688"/><polygon fill="#181818" points="132,93.9688,136,103.9688,140,93.9688,136,97.9688" style="stroke:#181818;stroke-width:1.0;"/><line style="stroke:#181818;stroke-width:1.0;" x1="136" x2="136" y1="137.9375" y2="157.9375"/><polygon fill="#181818" points="132,147.9375,136,157.9375,140,147.9375,136,151.9375" style="stroke:#181818;stroke-width:1.0;"/><line style="stroke:#181818;stroke-width:1.0;" x1="136" x2="136" y1="191.9063" y2="211.9063"/><polygon fill="#181818" points="132,201.9063,136,211.9063,140,201.9063,136,205.9063" style="stroke:#181818;stroke-width:1.0;"/><line style="stroke:#181818;stroke-width:1.0;" x1="136" x2="136" y1="245.875" y2="265.875"/><polygon fill="#181818" points="132,255.875,136,265.875,140,255.875,136,259.875" style="stroke:#181818;stroke-width:1.0;"/><line style="stroke:#181818;stroke-width:1.0;" x1="136" x2="136" y1="299.8438" y2="319.8438"/><polygon fill="#181818" points="132,309.8438,136,319.8438,140,309.8438,136,313.8438" style="stroke:#181818;stroke-width:1.0;"/><line style="stroke:#181818;stroke-width:1.0;" x1="136" x2="136" y1="353.8125" y2="373.8125"/><polygon fill="#181818" points="132,363.8125,136,373.8125,140,363.8125,136,367.8125" style="stroke:#181818;stroke-width:1.0;"/><line style="stroke:#181818;stroke-width:1.0;" x1="136" x2="136" y1="407.7813" y2="427.7813"/><polygon fill="#181818" points="132,417.7813,136,427.7813,140,417.7813,136,421.7813" style="stroke:#181818;stroke-width:1.0;"/><line style="stroke:#181818;stroke-width:1.0;" x1="136" x2="136" y1="461.75" y2="481.75"/><polygon fill="#181818" points="132,471.75,136,481.75,140,471.75,136,475.75" style="stroke:#181818;stroke-width:1.0;"/><line style="stroke:#181818;stroke-width:1.0;" x1="136" x2="136" y1="515.7188" y2="535.7188"/><polygon fill="#181818" points="132,525.7188,136,535.7188,140,525.7188,136,529.7188" style="stroke:#181818;stroke-width:1.0;"/><!--SRC=[Aov9B2hXKW02Az_yibG5zwBCWeBK8eN4913FFoahDRb48I2_EBCaCp_F6gBGlo0r3wRG6elUbFpoF8MIV1owdNFoYrFnQIyjiCRfe934elHK32EnsevTAI6tWomlBial0000]--></g></svg>