<?xml version="1.0" encoding="UTF-8" standalone="no"?><svg xmlns="http://www.w3.org/2000/svg" xmlns:xlink="http://www.w3.org/1999/xlink" contentStyleType="text/css" height="587px" preserveAspectRatio="none" style="width:260px;height:587px;background:#FFFFFF;" version="1.1" viewBox="0 0 260 587" width="260px" zoomAndPan="magnify"><defs/><g><rect fill="#F1F1F1" height="33.9688" rx="12.5" ry="12.5" style="stroke:#181818;stroke-width:0.5;" width="139" x="40.5" y="11"/><text fill="#000000" font-family="sans-serif" font-size="12" font-weight="bold" lengthAdjust="spacing" textLength="119" x="50.5" y="32.1387">Simulation Start</text><rect fill="#F1F1F1" height="33.9688" rx="12.5" ry="12.5" style="stroke:#181818;stroke-width:0.5;" width="173" x="23.5" y="172.9063"/><text fill="#000000" font-family="sans-serif" font-size="12" lengthAdjust="spacing" textLength="153" x="33.5" y="194.0449">Perform Object Detection</text><rect fill="#F1F1F1" height="33.9688" rx="12.5" ry="12.5" style="stroke:#181818;stroke-width:0.5;" width="93" x="63.5" y="118.9375"/><text fill="#000000" font-family="sans-serif" font-size="12" lengthAdjust="spacing" textLength="73" x="73.5" y="140.0762">Take Picture</text><polygon fill="#F1F1F1" points="68.5,226.875,151.5,226.875,163.5,238.875,151.5,250.875,68.5,250.875,56.5,238.875,68.5,226.875" style="stroke:#181818;stroke-width:0.5;"/><text fill="#000000" font-family="sans-serif" font-size="11" lengthAdjust="spacing" textLength="21" x="114" y="261.0854">yes</text><text fill="#000000" font-family="sans-serif" font-size="11" lengthAdjust="spacing" textLength="83" x="68.5" y="242.6831">objects found?</text><text fill="#000000" font-family="sans-serif" font-size="11" lengthAdjust="spacing" textLength="14" x="163.5" y="236.2808">no</text><rect fill="#F1F1F1" height="33.9688" rx="12.5" ry="12.5" style="stroke:#181818;stroke-width:0.5;" width="95" x="62.5" y="336.5542"/><text fill="#000000" font-family="sans-serif" font-size="12" lengthAdjust="spacing" textLength="75" x="72.5" y="357.6929">Move object</text><rect fill="#F1F1F1" height="33.9688" rx="12.5" ry="12.5" style="stroke:#181818;stroke-width:0.5;" width="188" x="16" y="400.5151"/><text fill="#000000" font-family="sans-serif" font-size="12" lengthAdjust="spacing" textLength="168" x="26" y="421.6538">Remove from found objects</text><rect fill="#F1F1F1" height="33.9688" rx="12.5" ry="12.5" style="stroke:#181818;stroke-width:0.5;" width="180" x="20" y="282.5854"/><text fill="#000000" font-family="sans-serif" font-size="12" lengthAdjust="spacing" textLength="160" x="30" y="303.7241">Coordinate Transformation</text><polygon fill="#F1F1F1" points="69.5,454.4839,150.5,454.4839,162.5,466.4839,150.5,478.4839,69.5,478.4839,57.5,466.4839,69.5,454.4839" style="stroke:#181818;stroke-width:0.5;"/><text fill="#000000" font-family="sans-serif" font-size="11" lengthAdjust="spacing" textLength="81" x="69.5" y="470.292">more objects?</text><text fill="#000000" font-family="sans-serif" font-size="11" lengthAdjust="spacing" textLength="21" x="162.5" y="463.8896">yes</text><rect fill="#F1F1F1" height="33.9688" rx="12.5" ry="12.5" style="stroke:#181818;stroke-width:0.5;" width="198" x="11" y="64.9688"/><text fill="#000000" font-family="sans-serif" font-size="12" lengthAdjust="spacing" textLength="178" x="21" y="86.1074">Move Robot to HOME Position</text><polygon fill="#F1F1F1" points="64,498.4839,156,498.4839,168,510.4839,156,522.4839,64,522.4839,52,510.4839,64,498.4839" style="stroke:#181818;stroke-width:0.5;"/><text fill="#000000" font-family="sans-serif" font-size="11" lengthAdjust="spacing" textLength="92" x="64" y="514.292">Keep Watching?</text><text fill="#000000" font-family="sans-serif" font-size="11" lengthAdjust="spacing" textLength="21" x="168" y="507.8896">yes</text><rect fill="#F1F1F1" height="33.9688" rx="12.5" ry="12.5" style="stroke:#181818;stroke-width:0.5;" width="47" x="86.5" y="542.4839"/><text fill="#000000" font-family="sans-serif" font-size="12" lengthAdjust="spacing" textLength="27" x="96.5" y="563.6226">stop</text><line style="stroke:#181818;stroke-width:1.0;" x1="110" x2="110" y1="152.9063" y2="172.9063"/><polygon fill="#181818" points="106,162.9063,110,172.9063,114,162.9063,110,166.9063" style="stroke:#181818;stroke-width:1.0;"/><line style="stroke:#181818;stroke-width:1.0;" x1="163.5" x2="208.5" y1="238.875" y2="238.875"/><polygon fill="#181818" points="204.5,197.3984,208.5,187.3984,212.5,197.3984,208.5,193.3984" style="stroke:#181818;stroke-width:1.0;"/><line style="stroke:#181818;stroke-width:1.0;" x1="208.5" x2="208.5" y1="135.9219" y2="238.875"/><line style="stroke:#181818;stroke-width:1.0;" x1="208.5" x2="156.5" y1="135.9219" y2="135.9219"/><polygon fill="#181818" points="166.5,131.9219,156.5,135.9219,166.5,139.9219,162.5,135.9219" style="stroke:#181818;stroke-width:1.0;"/><line style="stroke:#181818;stroke-width:1.0;" x1="110" x2="110" y1="206.875" y2="226.875"/><polygon fill="#181818" points="106,216.875,110,226.875,114,216.875,110,220.875" style="stroke:#181818;stroke-width:1.0;"/><line style="stroke:#181818;stroke-width:1.0;" x1="110" x2="110" y1="370.5229" y2="400.5151"/><polygon fill="#181818" points="106,390.5151,110,400.5151,114,390.5151,110,394.5151" style="stroke:#181818;stroke-width:1.0;"/><line style="stroke:#181818;stroke-width:1.0;" x1="110" x2="110" y1="316.5542" y2="336.5542"/><polygon fill="#181818" points="106,326.5542,110,336.5542,114,326.5542,110,330.5542" style="stroke:#181818;stroke-width:1.0;"/><line style="stroke:#181818;stroke-width:1.0;" x1="162.5" x2="216" y1="466.4839" y2="466.4839"/><polygon fill="#181818" points="212,390.5229,216,380.5229,220,390.5229,216,386.5229" style="stroke:#181818;stroke-width:1.0;"/><line style="stroke:#181818;stroke-width:1.0;" x1="216" x2="216" y1="299.5698" y2="466.4839"/><line style="stroke:#181818;stroke-width:1.0;" x1="216" x2="200" y1="299.5698" y2="299.5698"/><polygon fill="#181818" points="210,295.5698,200,299.5698,210,303.5698,206,299.5698" style="stroke:#181818;stroke-width:1.0;"/><line style="stroke:#181818;stroke-width:1.0;" x1="110" x2="110" y1="434.4839" y2="454.4839"/><polygon fill="#181818" points="106,444.4839,110,454.4839,114,444.4839,110,448.4839" style="stroke:#181818;stroke-width:1.0;"/><line style="stroke:#181818;stroke-width:1.0;" x1="110" x2="110" y1="250.875" y2="282.5854"/><polygon fill="#181818" points="106,272.5854,110,282.5854,114,272.5854,110,276.5854" style="stroke:#181818;stroke-width:1.0;"/><line style="stroke:#181818;stroke-width:1.0;" x1="110" x2="110" y1="98.9375" y2="118.9375"/><polygon fill="#181818" points="106,108.9375,110,118.9375,114,108.9375,110,112.9375" style="stroke:#181818;stroke-width:1.0;"/><line style="stroke:#181818;stroke-width:1.0;" x1="168" x2="234" y1="510.4839" y2="510.4839"/><polygon fill="#181818" points="230,307.0776,234,297.0776,238,307.0776,234,303.0776" style="stroke:#181818;stroke-width:1.0;"/><line style="stroke:#181818;stroke-width:1.0;" x1="234" x2="234" y1="81.9531" y2="510.4839"/><line style="stroke:#181818;stroke-width:1.0;" x1="234" x2="209" y1="81.9531" y2="81.9531"/><polygon fill="#181818" points="219,77.9531,209,81.9531,219,85.9531,215,81.9531" style="stroke:#181818;stroke-width:1.0;"/><line style="stroke:#181818;stroke-width:1.0;" x1="110" x2="110" y1="478.4839" y2="498.4839"/><polygon fill="#181818" points="106,488.4839,110,498.4839,114,488.4839,110,492.4839" style="stroke:#181818;stroke-width:1.0;"/><line style="stroke:#181818;stroke-width:1.0;" x1="110" x2="110" y1="44.9688" y2="64.9688"/><polygon fill="#181818" points="106,54.9688,110,64.9688,114,54.9688,110,58.9688" style="stroke:#181818;stroke-width:1.0;"/><line style="stroke:#181818;stroke-width:1.0;" x1="110" x2="110" y1="522.4839" y2="542.4839"/><polygon fill="#181818" points="106,532.4839,110,542.4839,114,532.4839,110,536.4839" style="stroke:#181818;stroke-width:1.0;"/><!--SRC=[ROxB2i9034Nt_OgxRFi9xSA52eA8HGNNOqrrr9cKJAhuz_QX-C1i1f8pzzmiJTVMDHUZbZtMQaJJD8-4QZAARC5Nmefth536RBcOek1WEpYFqCuBt9WpeR2bDaB3fPki8AbO79Qx4vMA2Mdx_7w-7Us547FF15JS-FqeWGs8FIVmhJo-KqYYB-EOMVRM6oLinFZGUSmxkzVtzOVSZ-sANBUlXDqWUoBXNol7yee8pr9zbszgJbHZQxGyMd_unBAWNESF]--></g></svg>